<?xml version="1.0" encoding="utf-8"?>
<!-- Generator: Adobe Illustrator 16.0.0, SVG Export Plug-In . SVG Version: 6.00 Build 0)  -->
<!DOCTYPE svg PUBLIC "-//W3C//DTD SVG 1.1//EN" "http://www.w3.org/Graphics/SVG/1.1/DTD/svg11.dtd">
<svg version="1.1" id="Layer_1" xmlns="http://www.w3.org/2000/svg" xmlns:xlink="http://www.w3.org/1999/xlink" x="0px" y="0px"
	 width="150.001px" height="30.155px" viewBox="0 0 150.001 30.155" enable-background="new 0 0 150.001 30.155"
	 xml:space="preserve">
<g opacity="0.7">
	<path fill="#FFFFFF" d="M4.508,0H0v23.025c0,2.002,1.813,3.689,3.164,5.067C4.513,29.462,7,30.151,9,30.155V30h15v-7H9v-4h13v-8H9
		V6h15V0H7.273H4.508z"/>
	<polygon fill="#FFFFFF" points="47.826,0 43.605,8.442 39.379,0 32.628,0 40.228,15 32.628,30 39.379,30 43.605,21.557 47.826,30 
		54.598,30 46.988,15 54.598,0 	"/>
	<path fill="#FFFFFF" d="M79,20.086c0,1.027,0.221,1.64-0.243,2.227C78.294,22.901,78.163,23,77.462,23H71V0h-7v21.775
		c0,2.327,0.765,4.305,2.043,5.929c1.275,1.629,2.957,2.44,4.957,2.44V30h8.902c1.877,0,3.144-0.582,4.455-1.897
		C85.67,26.789,86,25.266,86,23.389V0h-7V20.086z"/>
	<path fill="#FFFFFF" d="M110.115,0h-6.564h-5.065H96v30h7V6h6.288c0.975,0,1.175,0.44,1.587,0.814
		C111.287,7.192,111,7.968,111,8.645V30h7V8.832c0-2.627-0.423-4.671-2.009-6.385C114.4,0.732,112.691,0,110.115,0z"/>
	<path fill="#FFFFFF" d="M148.754,1.878C147.416,0.542,146.53,0,144.58,0h-11.558H128v30h4.951h2.89h8.363
		c2.128,0,3.118-0.718,4.493-2.307c1.377-1.589,1.303-3.448,1.303-5.725V6.687C150,4.735,150.092,3.219,148.754,1.878z M143,20.393
		c0,0.902,0.385,1.43,0.035,1.98C142.684,22.922,142.63,23,141.754,23H135V6h6.754c0.726,0,0.742,0.657,1.166,1.281
		c0.426,0.625,0.08,1.782,0.08,2.783V20.393z"/>
</g>
</svg>
